<svg width="276" height="277" viewBox="0 0 276 277" fill="none" xmlns="http://www.w3.org/2000/svg">
<g clip-path="url(#clip0_2304_19952)">
<path d="M140.156 0.500013C141.918 1.37046 143.435 2.56354 145.008 3.73439C165.472 18.5212 190.467 24.0434 215.344 20.2411C222.828 18.9945 230.152 16.7206 237.074 13.6081C239.351 12.6744 241.237 12.4048 243.656 12.8984C245.425 14.2621 246.186 15.0964 246.89 17.211C246.94 18.0175 246.959 18.8262 246.96 19.6343C246.962 20.1336 246.963 20.633 246.965 21.1475C246.964 21.6971 246.963 22.2466 246.963 22.8128C246.964 23.3959 246.965 23.9791 246.966 24.5798C246.97 26.5438 246.969 28.5078 246.969 30.4718C246.97 31.876 246.972 33.2802 246.974 34.6844C246.979 38.1094 246.98 41.5345 246.981 44.9595C246.981 47.7447 246.982 50.5298 246.984 53.315C246.988 61.213 246.991 69.1111 246.99 77.0091C246.99 77.648 246.99 77.648 246.99 78.2999C246.99 78.7264 246.99 79.1529 246.99 79.5923C246.99 86.4976 246.995 93.4028 247.003 100.308C247.011 107.4 247.014 114.492 247.014 121.583C247.014 125.564 247.015 129.545 247.021 133.526C247.026 137.272 247.026 141.018 247.022 144.764C247.022 146.138 247.023 147.512 247.026 148.886C247.03 150.764 247.028 152.642 247.024 154.521C247.027 155.062 247.029 155.603 247.032 156.16C246.969 169.059 240.099 180.529 232.875 190.789C232.669 191.083 232.464 191.377 232.252 191.681C227.23 198.862 221.887 205.717 216.164 212.352C215.82 212.75 215.476 213.149 215.122 213.56C214.217 214.6 213.306 215.634 212.39 216.664C212.053 217.046 211.715 217.427 211.367 217.82C210.1 219.24 208.823 220.65 207.539 222.055C207.244 222.378 206.949 222.701 206.645 223.033C202.399 227.665 198.054 232.087 193.385 236.291C191.967 237.585 190.579 238.909 189.186 240.23C185.542 243.683 181.833 246.973 177.89 250.086C177.271 250.586 176.652 251.088 176.033 251.589C167.576 258.437 158.859 264.739 149.734 270.676C148.804 271.282 147.877 271.891 146.952 272.505C145.873 273.219 144.786 273.919 143.694 274.613C143.116 274.986 142.539 275.358 141.944 275.742C139.598 276.737 137.811 277.019 135.305 276.5C133.306 275.605 131.549 274.433 129.745 273.198C129.231 272.858 128.717 272.518 128.188 272.168C126.598 271.109 125.02 270.034 123.445 268.953C122.966 268.628 122.488 268.303 121.994 267.968C113.552 262.224 105.402 256.1 97.5702 249.547C97.0309 249.101 96.4917 248.656 95.9361 248.197C91.6325 244.621 87.5411 240.845 83.4724 237.005C82.1928 235.804 80.9009 234.617 79.6076 233.43C75.8265 229.961 72.2091 226.462 68.8609 222.571C67.9767 221.577 67.0586 220.653 66.1024 219.73C64.1134 217.772 62.3908 215.636 60.6444 213.461C59.7159 212.325 58.7823 211.214 57.8143 210.113C48.9948 200.083 41.3481 189.08 35.0389 177.313C34.7269 176.734 34.4149 176.155 34.0934 175.558C30.508 168.666 29.0269 162.425 29.0335 154.726C29.0319 154.139 29.0303 153.553 29.0287 152.949C29.024 150.986 29.0232 149.024 29.0224 147.062C29.0199 145.654 29.0171 144.246 29.0142 142.838C29.0069 139.015 29.0037 135.193 29.0013 131.371C28.9998 128.983 28.9975 126.596 28.9951 124.209C28.9885 117.597 28.983 110.984 28.9811 104.372C28.981 103.949 28.9809 103.526 28.9808 103.091C28.9807 102.667 28.9806 102.244 28.9804 101.807C28.9802 100.949 28.98 100.09 28.9797 99.2315C28.9796 98.8056 28.9795 98.3798 28.9793 97.9411C28.9772 91.0345 28.9678 84.128 28.9553 77.2214C28.9425 70.1271 28.9358 63.0329 28.9351 55.9386C28.9346 51.9567 28.9315 47.9748 28.9218 43.9929C28.9126 40.2502 28.9117 36.5075 28.9164 32.7647C28.9168 31.39 28.9145 30.0153 28.9092 28.6406C28.9024 26.7664 28.9055 24.8924 28.9111 23.0182C28.9068 22.4722 28.9024 21.9263 28.8979 21.3638C28.9181 18.5076 29.0684 16.4186 30.7264 13.9766C32.9219 12.5129 34.6616 12.496 37.1951 12.8984C38.8281 13.4715 40.416 14.1124 42.0084 14.789C64.0627 24.1026 90.0552 23.0981 112.039 14.1914C119.71 10.7966 127.412 6.86515 134.001 1.62867C135.889 0.17228 137.871 0.0993263 140.156 0.500013ZM133.586 15.021C122.127 22.6105 109.463 27.6029 95.953 30.1484C95.2642 30.2797 95.2642 30.2797 94.5616 30.4135C77.6386 33.4948 60.9397 31.7608 44.4829 27.2465C42.9615 26.8741 41.436 26.6259 39.8905 26.375C39.8412 43.3646 39.8031 60.3541 39.7804 77.3437C39.7777 79.3516 39.7749 81.3595 39.772 83.3674C39.7714 83.7672 39.7709 84.1669 39.7703 84.5787C39.7609 91.0424 39.7439 97.506 39.7241 103.97C39.7039 110.607 39.692 117.244 39.6876 123.882C39.6846 127.974 39.6753 132.066 39.6578 136.158C39.645 139.301 39.6437 142.445 39.6466 145.588C39.646 146.874 39.6417 148.159 39.6334 149.445C39.4615 158.502 39.4615 158.502 42.0467 167.07C42.2584 167.541 42.4701 168.011 42.6882 168.496C43.2975 169.821 43.9571 171.106 44.6409 172.394C44.8928 172.871 45.1447 173.348 45.4041 173.839C49.9101 182.154 55.531 189.897 61.453 197.258C61.8421 197.744 62.2312 198.231 62.6322 198.732C63.8433 200.228 65.0694 201.711 66.3045 203.188C66.6606 203.613 66.6606 203.613 67.0239 204.048C73.164 211.367 79.7097 218.256 86.452 225.02C86.9519 225.522 87.4518 226.024 87.9668 226.542C90.7226 229.291 93.5304 231.928 96.492 234.453C97.128 235.01 97.7633 235.568 98.3977 236.127C105.754 242.569 113.356 248.542 121.33 254.201C122.175 254.801 123.017 255.405 123.858 256.009C125.147 256.928 126.449 257.822 127.758 258.711C128.11 258.955 128.463 259.198 128.826 259.45C130.048 260.29 131.277 261.119 132.508 261.945C132.902 262.218 133.296 262.491 133.701 262.772C135.818 264.208 135.818 264.208 138.265 264.702C140.313 263.793 142.198 262.691 144.098 261.507C144.524 261.244 144.95 260.981 145.389 260.711C149.429 258.176 153.221 255.362 156.987 252.441C158.369 251.377 159.775 250.346 161.18 249.311C173.188 240.293 184.301 230.214 194.938 219.629C195.283 219.287 195.627 218.945 195.982 218.593C198.02 216.548 199.953 214.438 201.84 212.253C202.888 211.042 203.966 209.861 205.046 208.679C207.594 205.848 210.017 202.931 212.39 199.953C212.669 199.606 212.948 199.258 213.235 198.9C229.683 178.766 229.683 178.766 236.239 154.469C236.24 153.919 236.241 153.369 236.242 152.803C236.243 150.969 236.238 149.135 236.232 147.301C236.231 145.983 236.231 144.665 236.232 143.348C236.232 140.514 236.229 137.681 236.223 134.848C236.214 130.752 236.212 126.656 236.21 122.56C236.208 115.913 236.201 109.266 236.191 102.62C236.181 96.165 236.173 89.7103 236.168 83.2556C236.168 82.8574 236.168 82.4592 236.168 82.0489C236.166 80.0512 236.165 78.0535 236.163 76.0558C236.152 59.4955 236.133 42.9353 236.109 26.375C235.246 26.5459 234.383 26.7173 233.52 26.8889C233.039 26.9843 232.559 27.0797 232.063 27.178C230.558 27.4859 229.072 27.8427 227.585 28.228C200.818 35.0209 172.617 32.246 148.242 18.8281C146.121 17.5352 144.044 16.1787 142.005 14.7604C141.474 14.3964 141.474 14.3964 140.933 14.025C140.626 13.8075 140.318 13.5899 140.001 13.3658C137.403 12.0507 135.656 13.5868 133.586 15.021Z" fill="#FF6423" fill-opacity="0.5"/>
<path d="M139.015 34.7263C141.34 35.284 143.105 36.8474 145.008 38.2344C160.03 48.256 177.898 52.4285 195.8 49.3187C200.04 48.4696 204.099 47.0273 208.164 45.577C214.707 43.3078 214.707 43.3078 217.478 44.2652C218.859 45.2422 218.859 45.2422 219.937 46.8594C220.045 48.3251 220.09 49.7359 220.085 51.202C220.088 51.6497 220.091 52.0974 220.094 52.5587C220.102 54.0645 220.102 55.5702 220.103 57.0761C220.107 58.1537 220.111 59.2313 220.116 60.3089C220.128 63.2417 220.133 66.1745 220.136 69.1073C220.138 70.9409 220.141 72.7745 220.145 74.608C220.158 81.0089 220.165 87.4097 220.167 93.8105C220.169 99.7689 220.185 105.727 220.208 111.686C220.226 116.805 220.235 121.924 220.235 127.043C220.235 130.099 220.24 133.155 220.255 136.21C220.27 139.089 220.271 141.967 220.262 144.846C220.261 145.898 220.265 146.951 220.273 148.003C220.32 154.077 219.991 158.846 217.242 164.375C217.04 164.808 216.839 165.242 216.631 165.688C216.125 166.764 215.583 167.81 215.019 168.856C214.814 169.238 214.61 169.619 214.399 170.013C208.128 181.457 199.424 191.654 190.563 201.164C189.61 202.21 188.704 203.254 187.811 204.348C186.778 205.572 185.824 206.561 184.595 207.567C182.648 209.222 180.855 210.999 179.07 212.823C176.615 215.314 174.068 217.581 171.325 219.757C169.985 220.832 168.684 221.941 167.389 223.068C160.417 229.108 152.767 234.379 144.925 239.223C144.273 239.629 143.631 240.051 143 240.488C140.861 241.889 139.086 242.395 136.577 242.271C134.076 241.738 132.144 240.287 130.082 238.833C129.612 238.514 129.142 238.195 128.658 237.866C127.271 236.92 125.896 235.958 124.523 234.992C123.813 234.5 123.103 234.008 122.392 233.516C120.566 232.24 118.765 230.93 116.977 229.602C116.687 229.387 116.398 229.173 116.1 228.952C107.191 222.314 98.8863 214.88 91.1015 206.961C89.7099 205.563 88.3112 204.173 86.8985 202.796C83.3615 199.337 80.1565 195.753 77.0859 191.867C76.5965 191.276 76.1059 190.686 75.614 190.096C69.8247 183.107 64.6328 175.595 60.3076 167.609C60.1233 167.275 59.939 166.94 59.7492 166.596C56.143 159.659 55.7499 153.232 55.792 145.59C55.79 144.526 55.787 143.462 55.7832 142.398C55.7757 139.528 55.7817 136.658 55.7906 133.788C55.7981 130.778 55.7946 127.769 55.7927 124.759C55.7912 119.711 55.7984 114.664 55.811 109.616C55.8253 103.78 55.8262 97.9448 55.8199 92.1092C55.8141 86.4877 55.8174 80.8662 55.8251 75.2447C55.8282 72.8546 55.8281 70.4646 55.8256 68.0746C55.823 65.264 55.8284 62.4535 55.8401 59.643C55.8431 58.6114 55.8434 57.5798 55.8407 56.5483C55.8375 55.1413 55.8442 53.7348 55.8535 52.3279C55.8502 51.919 55.847 51.51 55.8437 51.0887C55.8725 48.6867 56.1849 47.1437 57.6796 45.2422C59.8735 43.7797 61.6164 43.7578 64.1484 44.1641C65.7635 44.7542 67.3372 45.4086 68.9155 46.0902C71.6562 47.2421 74.3845 48.0142 77.288 48.645C77.6785 48.7307 78.069 48.8163 78.4713 48.9046C97.2622 52.8046 115.805 48.1225 131.663 37.7861C132.569 37.1832 133.46 36.5595 134.351 35.935C135.951 34.9326 137.12 34.619 139.015 34.7263ZM137.461 46.8594C136.281 47.5375 135.202 48.2367 134.092 49.0156C118.369 59.5297 98.8578 62.8285 80.2866 60.2012C79.865 60.1423 79.4433 60.0834 79.0089 60.0227C76.1937 59.5775 73.46 58.8893 70.711 58.1444C70.338 58.0441 69.965 57.9438 69.5808 57.8405C68.6682 57.595 67.7559 57.3484 66.8437 57.1016C66.7427 69.8147 66.6668 82.5278 66.6203 95.2412C66.5981 101.145 66.5679 107.049 66.5184 112.952C66.4752 118.101 66.4475 123.25 66.438 128.399C66.4324 131.122 66.4193 133.845 66.3878 136.569C66.3582 139.139 66.3495 141.708 66.3559 144.278C66.3548 145.215 66.3463 146.152 66.3296 147.089C66.2141 153.908 67.6617 158.53 71.1562 164.375C71.6017 165.171 72.0468 165.967 72.4912 166.763C72.8717 167.385 73.2577 168.005 73.6494 168.62C73.868 168.966 74.0865 169.313 74.3118 169.669C83.9297 184.555 97.3038 199.856 111.276 210.726C112.578 211.745 113.826 212.811 115.072 213.896C119.236 217.509 123.651 220.736 128.164 223.898C129.35 224.732 130.524 225.58 131.698 226.43C132.416 226.938 133.136 227.445 133.856 227.951C134.181 228.19 134.507 228.429 134.842 228.675C135.86 229.408 135.86 229.408 137.461 230.141C139.809 229.69 141.763 228.102 143.728 226.772C144.248 226.421 144.248 226.421 144.778 226.064C152.207 221.01 159.329 215.642 166.031 209.656C166.498 209.243 166.965 208.829 167.446 208.403C168.78 207.213 170.101 206.01 171.422 204.805C171.951 204.331 172.481 203.858 173.026 203.371C179.691 197.374 185.851 190.853 191.367 183.781C191.803 183.229 192.239 182.676 192.687 182.107C197.492 175.973 202.187 169.607 205.922 162.758C206.318 162.075 206.318 162.075 206.723 161.379C209.484 156.146 209.6 151.7 209.523 145.899C209.522 144.926 209.523 143.953 209.525 142.98C209.526 140.36 209.507 137.74 209.484 135.119C209.464 132.373 209.462 129.627 209.458 126.881C209.448 121.69 209.422 116.5 209.389 111.309C209.353 105.396 209.335 99.4822 209.319 93.5687C209.285 81.4129 209.228 69.2572 209.156 57.1016C208.673 57.2185 208.673 57.2185 208.18 57.3378C206.701 57.6947 205.222 58.0499 203.742 58.405C203.236 58.5276 202.729 58.6503 202.206 58.7766C181.819 63.6611 160.534 60.5198 142.616 49.5884C141.965 49.1799 141.314 48.7707 140.664 48.3608C139.128 47.3488 139.128 47.3488 137.461 46.8594Z" fill="#FF6423"/>
<path d="M110 112.841L110 147.071L138.5 123.73L167 147.071V112.841L138.5 89.5L110 112.841Z" fill="url(#paint0_linear_2304_19952)"/>
<path d="M110 156.33L110 167.5L138.5 144.159L167 167.5V156.33L138.5 132.989L110 156.33Z" fill="url(#paint1_linear_2304_19952)"/>
</g>
<defs>
<linearGradient id="paint0_linear_2304_19952" x1="97.5498" y1="97.81" x2="167.05" y2="185.81" gradientUnits="userSpaceOnUse">
<stop stop-color="#FF6423"/>
<stop offset="0.93" stop-color="#934220"/>
</linearGradient>
<linearGradient id="paint1_linear_2304_19952" x1="97.5498" y1="97.81" x2="167.05" y2="185.81" gradientUnits="userSpaceOnUse">
<stop stop-color="#FF6423"/>
<stop offset="0.93" stop-color="#934220"/>
</linearGradient>
<clipPath id="clip0_2304_19952">
<rect width="276" height="276" fill="white" transform="translate(0 0.5)"/>
</clipPath>
</defs>
</svg>
